HIERARCHY
ROOT root
{
	OFFSET 0.000000 0.000000 0.000000
	CHANNELS 6 Xposition Yposition Zposition Zrotation Yrotation Xrotation
	JOINT lhip
	{
		OFFSET 0.058581 -0.082280 -0.017664
		CHANNELS 3 Zrotation Yrotation Xrotation
		JOINT lknee
		{
			OFFSET 0.043451 -0.386469 0.008037
			CHANNELS 3 Zrotation Yrotation Xrotation
			JOINT lankle
			{
				OFFSET -0.014790 -0.426874 -0.037428
				CHANNELS 3 Zrotation Yrotation Xrotation
				JOINT ltoe
				{
					OFFSET 0.041054 -0.060286 0.122042
					CHANNELS 3 Zrotation Yrotation Xrotation
					End Site
					{
						OFFSET 0.000000 0.000000 0.000000
					}
				}
			}
		}
	}
	JOINT rhip
	{
		OFFSET -0.060310 -0.090513 -0.013543
		CHANNELS 3 Zrotation Yrotation Xrotation
		JOINT rknee
		{
			OFFSET -0.043257 -0.383688 -0.004843
			CHANNELS 3 Zrotation Yrotation Xrotation
			JOINT rankle
			{
				OFFSET 0.019056 -0.420046 -0.034562
				CHANNELS 3 Zrotation Yrotation Xrotation
				JOINT rtoe
				{
					OFFSET -0.034840 -0.062106 0.130323
					CHANNELS 3 Zrotation Yrotation Xrotation
					End Site
					{
						OFFSET 0.000000 0.000000 0.000000
					}
				}
			}
		}
	}
	JOINT lowerback
	{
		OFFSET 0.004439 0.124404 -0.038385
		CHANNELS 3 Zrotation Yrotation Xrotation
		JOINT upperback
		{
			OFFSET 0.004488 0.137956 0.026820
			CHANNELS 3 Zrotation Yrotation Xrotation
			JOINT chest
			{
				OFFSET -0.002265 0.056032 0.002855
				CHANNELS 3 Zrotation Yrotation Xrotation
				JOINT lowerneck
				{
					OFFSET -0.013390 0.211636 -0.033468
					CHANNELS 3 Zrotation Yrotation Xrotation
					JOINT upperneck
					{
						OFFSET 0.010113 0.088937 0.050410
						CHANNELS 3 Zrotation Yrotation Xrotation
						End Site
						{
							OFFSET 0.000000 0.000000 0.000000
						}
					}
				}
				JOINT lclavicle
				{
					OFFSET 0.071702 0.114000 -0.018898
					CHANNELS 3 Zrotation Yrotation Xrotation
					JOINT lshoulder
					{
						OFFSET 0.122921 0.045205 -0.019046
						CHANNELS 3 Zrotation Yrotation Xrotation
						JOINT lelbow
						{
							OFFSET 0.255332 -0.015649 -0.022946
							CHANNELS 3 Zrotation Yrotation Xrotation
							JOINT lwrist
							{
								OFFSET 0.265709 0.012698 -0.007375
								CHANNELS 3 Zrotation Yrotation Xrotation
								End Site
								{
									OFFSET 0.000000 0.000000 0.000000
								}
							}
						}
					}
				}
				JOINT rclavicle
				{
					OFFSET -0.082954 0.112472 -0.023707
					CHANNELS 3 Zrotation Yrotation Xrotation
					JOINT rshoulder
					{
						OFFSET -0.113228 0.046853 -0.008472
						CHANNELS 3 Zrotation Yrotation Xrotation
						JOINT relbow
						{
							OFFSET -0.260127 -0.014369 -0.031269
							CHANNELS 3 Zrotation Yrotation Xrotation
							JOINT rwrist
							{
								OFFSET -0.269108 0.006794 -0.006027
								CHANNELS 3 Zrotation Yrotation Xrotation
								End Site
								{
									OFFSET 0.000000 0.000000 0.000000
								}
							}
						}
					}
				}
			}
		}
	}
}
MOTION
Frames: 10
Frame Time: 0.033333
-2.005266 0.260614 1.010036 87.747597 -1.134140 86.811812 0.680028 0.619391 1.699745 -2.939359 -8.546385 9.196742 3.068021 9.356670 -12.133001 0.000000 -0.000000 0.000000 -1.353126 -1.483599 -4.449461 2.692248 -1.069709 18.699322 4.361028 -5.050044 -12.227776 0.000000 -0.000000 0.000000 -0.415109 0.248732 9.428404 1.056693 -1.269973 -3.931328 -0.494695 -2.028682 1.297205 5.360510 -6.065597 -8.216361 -0.697524 -12.574856 5.877690 -27.625843 6.489439 0.420152 -55.996523 -5.539302 8.054750 9.175130 -23.084999 3.479840 -4.242429 -2.076085 -5.093725 28.729509 -0.065695 -2.411674 53.287591 7.211034 10.076259 -18.539856 21.076997 -15.377721 3.505751 1.529275 -8.853347 
-2.004110 0.262554 1.009709 88.329206 -1.333856 87.237470 0.411744 0.289080 1.944350 -2.940641 -8.599335 7.792791 3.442453 9.438520 -11.748520 0.000000 -0.000000 0.000000 -1.739514 -1.330660 -4.731789 2.680391 -1.420474 18.641123 5.158458 -5.401835 -12.007911 0.000000 -0.000000 0.000000 -0.520230 -0.256242 8.233364 1.073968 -2.138608 -3.287397 -0.772561 -1.594295 1.223974 5.296579 -5.638080 -8.196727 -0.694445 -12.517788 5.908479 -27.236151 6.155114 0.151114 -55.774825 -6.223194 8.160753 9.277786 -22.692924 2.888524 -4.296835 -2.349537 -4.949352 29.281194 -0.070153 -2.233080 53.748622 7.109817 10.329639 -18.754510 20.946486 -15.423203 3.454818 1.489020 -8.915061 
-2.002508 0.264535 1.009657 88.630382 -1.278322 87.562575 0.339588 0.406534 2.391469 -2.762842 -8.566006 6.240715 3.431471 9.352904 -11.216301 0.000000 -0.000000 0.000000 -1.794993 -1.304776 -4.903065 2.610510 -1.570448 18.448058 4.933405 -5.808832 -12.142494 0.000000 -0.000000 0.000000 -0.521736 -0.245653 7.655248 1.136950 -2.124075 -3.505250 -0.704240 -1.914668 1.177937 5.056106 -5.445828 -7.853711 -0.771474 -12.429084 6.440953 -27.092498 5.935107 0.147953 -55.798432 -6.880050 8.243007 9.435737 -22.749200 2.802558 -4.072638 -2.309696 -4.988521 29.299130 -0.498489 -2.130371 54.345975 6.484941 10.690622 -18.627247 20.809403 -14.771520 3.497769 1.496672 -8.914397 
-2.001376 0.267269 1.010022 89.016835 -1.202748 87.936826 0.366364 0.393020 2.669350 -2.811986 -8.904713 4.963008 3.540867 9.430667 -10.876964 0.000000 -0.000000 0.000000 -1.761768 -1.250755 -5.294510 2.433009 -1.654144 18.548915 4.463216 -6.460998 -12.416383 0.000000 -0.000000 0.000000 -0.843889 -0.151878 7.312382 1.320431 -1.952713 -4.017578 -0.452519 -2.345745 1.049418 4.708384 -4.911663 -7.515737 -0.931679 -11.834350 7.014003 -27.095093 5.740076 0.320893 -55.629763 -7.650765 8.388807 9.646748 -23.586107 2.628246 -3.817921 -2.496736 -5.308033 29.557985 -0.877680 -1.985579 54.842968 5.556661 11.134331 -18.167656 20.235511 -14.052247 3.776547 1.274060 -8.864966 
-2.000567 0.269014 1.010050 89.033033 -1.159893 88.042055 0.350328 0.500727 2.775272 -2.694544 -8.828403 4.635755 3.188774 9.199452 -10.832328 0.000000 -0.000000 0.000000 -1.745905 -1.246723 -5.263702 2.228021 -1.832977 18.367393 4.319842 -6.588519 -12.457239 0.000000 -0.000000 0.000000 -0.941393 -0.239726 7.204733 1.309245 -1.868349 -4.195398 -0.346667 -2.365887 1.081107 4.718749 -4.406671 -7.637584 -1.181583 -11.146866 7.389119 -27.064107 5.758853 0.320021 -55.526052 -8.273300 8.393869 9.677119 -24.198370 2.511736 -3.676076 -2.698783 -5.812930 29.790686 -1.113923 -1.868564 55.290936 5.413424 11.380957 -17.842144 19.365300 -13.647122 3.976918 1.334405 -8.802927 
-1.999165 0.271154 1.010287 89.523172 -1.154734 88.303110 0.436993 0.321704 2.878571 -2.925735 -8.944111 3.918497 3.268286 8.946719 -10.743054 0.000000 -0.000000 0.000000 -1.794139 -1.503431 -5.410613 2.101370 -2.056001 18.362382 3.839672 -7.039848 -12.629658 0.000000 -0.000000 0.000000 -1.066548 -0.387812 6.982324 1.317692 -2.079796 -4.574694 -0.367771 -2.494919 1.027180 4.482638 -2.683344 -7.586135 -1.329072 -9.535253 7.761332 -26.923780 5.918465 0.461424 -55.291531 -8.809016 8.463955 9.513223 -25.309754 2.586678 -3.728921 -2.949558 -6.491695 30.235219 -1.527275 -1.743096 56.222918 5.255310 11.619139 -17.661817 17.741067 -13.157287 4.429578 1.383655 -8.711149 
-1.999355 0.273345 1.010166 89.708930 -1.108279 88.089560 0.357157 0.155212 3.142334 -2.924360 -8.863157 3.694908 3.332508 8.968714 -10.505466 0.000000 -0.000000 0.000000 -1.820712 -1.323152 -5.264674 1.962592 -2.311814 18.497713 3.456623 -7.403220 -12.888763 0.000000 -0.000000 0.000000 -1.352740 -0.129584 7.013556 1.417998 -1.859414 -4.064949 -0.088434 -2.816194 1.115596 4.288956 -1.132789 -7.980221 -1.351484 -8.120006 7.691292 -26.872097 5.209485 0.660106 -55.368458 -9.582762 8.652816 9.698291 -26.659001 2.280356 -3.737747 -3.038197 -6.966533 30.487642 -1.585486 -1.589643 56.801424 5.054939 11.696359 -17.497520 17.104289 -13.209886 4.843172 1.269256 -8.881579 
-1.998231 0.275180 1.010099 90.033768 -1.092409 88.280963 0.219016 -0.022453 2.954980 -2.887818 -9.011285 3.632082 3.398337 9.016991 -10.408084 0.000000 -0.000000 0.000000 -1.826429 -1.488390 -5.463934 1.772833 -2.390816 18.593329 3.040018 -7.752240 -13.187274 0.000000 -0.000000 0.000000 -1.235006 -0.630966 6.930096 1.273580 -2.267265 -4.104938 -0.231998 -2.443179 1.229538 3.960087 0.820576 -8.895249 -1.449885 -6.461443 7.652269 -26.646187 5.684175 0.079737 -55.161761 -9.609199 8.947611 9.160863 -28.434707 3.236482 -3.900407 -3.170817 -7.382650 31.151675 -1.825626 -1.195900 57.532430 5.018032 11.934833 -17.550745 16.471638 -13.129892 5.242998 1.163188 -8.785918 
-1.997928 0.277224 1.009702 90.306166 -0.979369 88.178002 0.291505 0.024073 3.074707 -3.004603 -9.002523 3.593499 3.590154 8.743435 -10.391295 0.000000 -0.000000 0.000000 -1.882931 -1.669265 -5.427203 1.822056 -2.494258 18.815437 2.982148 -7.707124 -13.405597 0.000000 -0.000000 0.000000 -1.615221 -0.112146 6.809481 1.410617 -2.030901 -3.657174 0.098918 -2.700408 1.374649 3.671816 2.154283 -9.137119 -1.394238 -5.209332 7.135459 -26.566064 4.779340 0.620985 -55.494730 -10.375959 9.202036 9.508434 -29.480019 3.279761 -3.968550 -3.262826 -7.135992 31.481909 -1.962806 -0.857886 58.087387 4.682056 11.672867 -17.868236 16.232980 -13.627159 6.091610 1.223759 -9.137104 
-1.997579 0.279982 1.009322 90.634454 -0.905090 88.394452 0.149801 -0.244910 2.859361 -2.956166 -9.138894 3.548990 3.712139 8.837142 -10.436193 0.000000 -0.000000 0.000000 -1.987050 -1.802422 -5.708072 1.812069 -2.587422 19.005775 3.077530 -7.772144 -13.575128 0.000000 -0.000000 0.000000 -1.707142 0.030949 6.930989 1.367720 -1.981133 -3.843126 0.177985 -2.631192 1.421793 3.410161 3.208402 -9.772307 -1.478338 -4.388544 6.761367 -26.385213 4.589680 0.504900 -55.684806 -10.542609 9.657799 9.054505 -30.904723 4.151964 -3.888319 -3.154780 -7.211887 31.929824 -2.277142 -0.389149 58.790609 4.282830 11.580149 -18.266939 15.980184 -14.007095 6.047568 1.133086 -9.255424 
